# xmcd CD database file
#
# Track frame offsets:
#	187
#	19330
#	32285
#	49887
#	66140
#	88932
#	93010
#	110532
#	127622
#	143332
#
# Disc length: 2043 seconds
#
# Revision: 0
# Processed by: cddbd v1.5.1PL0 Copyright (c) Steve Scherf et al.
# Submitted via: CDex 1.51
#
DISCID=7307f90a
DTITLE=EPO - DOWN TOWN
DYEAR=1980
DGENRE=J-POP
TTITLE0=DOWN TOWN
TTITLE1=約束は雨の中
TTITLE2=クラクション
TTITLE3=日曜はベルが鳴る前に
TTITLE4=語愛
TTITLE5=ポップ・ミュージック〜DOWN TOWN
TTITLE6=アスファルトひとり
TTITLE7=言い訳はしないけど
TTITLE8=水平線追いかけて
TTITLE9=珈琲タイム
EXTD=YEAR: 1980
EXTT0=
EXTT1=
EXTT2=
EXTT3=
EXTT4=
EXTT5=
EXTT6=
EXTT7=
EXTT8=
EXTT9=
PLAYORDER=
